# xmcd CD database file
#
# Track frame offsets:
#	187
#	19720
#	53087
#	71480
#	105542
#	125125
#
# Disc length: 2059 seconds
#
# Revision: 1
# Processed by: cddbd v1.5.1PL2 Copyright (c) Steve Scherf et al.
# Submitted via: CDex 1.60beta1-cs1
#
DISCID=4c080906
DTITLE=Jonny Griffin - The Little Giant
DYEAR=1959
DGENRE=Jazz
TTITLE0=Olive Refractions
TTITLE1=The Message
TTITLE2=Lonely One
TTITLE3=63rd Street Theme
TTITLE4=Playmates
TTITLE5=Venus And The Moon
EXTD=YEAR: 1959
EXTT0=
EXTT1=
EXTT2=
EXTT3=
EXTT4=
EXTT5=
PLAYORDER=
